#!OML:ASF E:\motion texture\Top Level 1\Subject 1\Session 1\male.ASF
:FULLY-SPECIFIED
:DEGREES
413
root -18.5665 17.9667 3.83116 149.382 -80.7161 -143.33
lowerback -1.35029 -0.640805 1.74867
upperback -1.55708 -0.948681 4.51205
thorax -0.791961 -0.512717 3.65456
lowerneck -16.52 3.1085 -0.063592
upperneck 19.5712 3.47159 3.12739
head 8.78701 1.91069 1.4894
rclavicle -1.63997e-014 -2.70347e-014
rhumerus -31.3472 -8.54016 -77.567
rradius 31.9155
rwrist 12.4032
rhand -12.3079 -25.8882
rfingers 7.12502
rthumb 13.7603 -55.4132
lclavicle -1.63997e-014 -2.70347e-014
lhumerus -22.277 -9.90494 92.4987
lradius 39.2367
lwrist -21.2667
lhand -9.2992 19.164
lfingers 7.12502
lthumb 16.6584 48.4691
rfemur -20.7549 2.82443 28.4121
rtibia 19.4547
rfoot -1.51075 -7.29346
rtoes 21.4705
lfemur -9.71453 -2.38347 -10.786
ltibia 47.7078
lfoot 2.3729 -7.43159
ltoes -18.4081
414
root -18.7256 17.9813 3.79418 147.824 -80.5632 -141.838
lowerback -1.35686 -0.495891 2.05542
upperback -1.53373 -0.761407 4.52922
thorax -0.777412 -0.422986 3.50055
lowerneck -16.5372 2.98035 -0.15416
upperneck 19.579 3.31152 3.15722
head 8.79348 1.83204 1.49551
rclavicle -2.44257e-014 4.53229e-014
rhumerus -30.8183 -8.15472 -77.7726
rradius 31.8645
rwrist 12.4693
rhand -12.2591 -25.895
rfingers 7.12502
rthumb 13.8073 -55.4168
lclavicle -2.44257e-014 4.53229e-014
lhumerus -22.6513 -9.34278 92.7179
lradius 38.467
lwrist -21.5461
lhand -9.12857 19.1555
lfingers 7.12502
lthumb 16.8227 48.4468
rfemur -19.944 2.86551 28.8605
rtibia 19.2509
rfoot -1.77026 -7.22057
rtoes 21.7063
lfemur -10.6617 -2.15157 -10.3128
ltibia 48.7718
lfoot 2.53035 -7.14115
ltoes -18.6266
415
root -18.8835 17.9954 3.75807 146.395 -80.399 -140.472
lowerback -1.36315 -0.342855 2.36106
upperback -1.50852 -0.563341 4.53951
thorax -0.759782 -0.32772 3.34027
lowerneck -16.5556 2.85058 -0.246596
upperneck 19.5813 3.14968 3.18821
head 8.79851 1.75264 1.50203
rclavicle -2.23633e-015 1.43125e-014
rhumerus -30.2925 -7.76536 -77.9609
rradius 31.8101
rwrist 12.5439
rhand -12.2086 -25.9151
rfingers 7.12502
rthumb 13.856 -55.4336
lclavicle -2.23633e-015 1.43125e-014
lhumerus -23.0181 -8.72146 92.888
lradius 37.6767
lwrist -21.8385
lhand -8.96979 19.1554
lfingers 7.12502
lthumb 16.9755 48.4336
rfemur -19.1302 2.89331 29.2992
rtibia 19.0369
rfoot -2.05783 -7.15415
rtoes 21.8709
lfemur -11.6215 -1.91103 -9.85801
ltibia 49.7639
lfoot 2.60682 -6.81789
ltoes -18.836
416
root -19.0402 18.009 3.72284 145.095 -80.2263 -139.233
lowerback -1.36826 -0.183029 2.66367
upperback -1.48227 -0.35617 4.5435
thorax -0.740128 -0.227731 3.17548
lowerneck -16.5726 2.72027 -0.34303
upperneck 19.5768 2.98794 3.22169
head 8.80101 1.67333 1.50992
rclavicle 4.87022e-015 5.64548e-014
rhumerus -29.7718 -7.3662 -78.1333
rradius 31.7578
rwrist 12.6194
rhand -12.1587 -25.9491
rfingers 7.12502
rthumb 13.9041 -55.4643
lclavicle 4.87022e-015 5.64548e-014
lhumerus -23.3806 -8.03525 93.0058
lradius 36.8712
lwrist -22.1488
lhand -8.82541 19.1604
lfingers 7.12502
lthumb 17.1145 48.4267
rfemur -18.3165 2.9124 29.725
rtibia 18.815
rfoot -2.36703 -7.09262
rtoes 21.9836
lfemur -12.5903 -1.66358 -9.42364
ltibia 50.6768
lfoot 2.60205 -6.46134
ltoes -19.038
417
root -19.1957 18.022 3.68851 143.926 -80.047 -138.121
lowerback -1.37265 -0.016853 2.96179
upperback -1.4553 -0.140446 4.54089
thorax -0.71834 -0.123266 3.00669
lowerneck -16.5889 2.59005 -0.442344
upperneck 19.5654 2.827 3.25715
head 8.80119 1.59447 1.51893
rclavicle 8.67198e-015 -4.85035e-014
rhumerus -29.2574 -6.95699 -78.2907
rradius 31.7118
rwrist 12.6965
rhand -12.1102 -25.994
rfingers 7.12502
rthumb 13.9508 -55.506
lclavicle 8.67198e-015 -4.85035e-014
lhumerus -23.7395 -7.28288 93.0681
lradius 36.0548
lwrist -22.4785
lhand -8.69008 19.1769
lfingers 7.12502
lthumb 17.2448 48.4318
rfemur -17.5059 2.9261 30.1358
rtibia 18.5868
rfoot -2.69253 -7.03014
rtoes 22.0637
lfemur -13.5638 -1.41029 -9.01122
ltibia 51.5021
lfoot 2.52044 -6.07023
ltoes -19.2451
418
root -19.3499 18.0343 3.65504 142.894 -79.8661 -137.141
lowerback -1.37673 0.154352 3.25069
upperback -1.42849 0.0821905 4.53117
thorax -0.694866 -0.0150783 2.83606
lowerneck -16.6038 2.46105 -0.542129
upperneck 19.5475 2.66826 3.29227
head 8.79907 1.51664 1.52804
rclavicle -3.45388e-015 -4.45278e-014
rhumerus -28.7513 -6.53608 -78.4342
rradius 31.6775
rwrist 12.7718
rhand -12.0631 -26.0496
rfingers 7.12502
rthumb 13.9962 -55.5584
lclavicle -3.45388e-015 -4.45278e-014
lhumerus -24.0958 -6.46291 93.072
lradius 35.2319
lwrist -22.8279
lhand -8.56716 19.2022
lfingers 7.12502
lthumb 17.3631 48.4467
rfemur -16.702 2.93539 30.5265
rtibia 18.3513
rfoot -3.03064 -6.96022
rtoes 22.103
lfemur -14.5395 -1.15428 -8.62541
ltibia 52.2325
lfoot 2.36644 -5.64411
ltoes -19.4318
419
root -19.503 18.0458 3.62242 141.98 -79.6837 -136.273
lowerback -1.3805 0.32991 3.53239
upperback -1.40227 0.310819 4.51505
thorax -0.670081 0.0963369 2.66323
lowerneck -16.6184 2.33319 -0.641341
upperneck 19.5243 2.5118 3.32503
head 8.79533 1.43973 1.53645
rclavicle -1.43125e-014 -3.49861e-014
rhumerus -28.2547 -6.10367 -78.5639
rradius 31.658
rwrist 12.845
rhand -12.0163 -26.1152
rfingers 7.12502
rthumb 14.0413 -55.6209
lclavicle -1.43125e-014 -3.49861e-014
lhumerus -24.4507 -5.57321 93.0144
lradius 34.4057
lwrist -23.1986
lhand -8.45899 19.2373
lfingers 7.12502
lthumb 17.4672 48.4725
rfemur -15.9039 2.9407 30.8996
rtibia 18.1054
rfoot -3.37366 -6.88535
rtoes 22.1045
lfemur -15.5117 -0.89685 -8.2636
ltibia 52.8602
lfoot 2.14838 -5.18351
ltoes -19.5852
420
root -19.6549 18.0564 3.59069 141.174 -79.501 -135.508
lowerback -1.385 0.509278 3.80802
upperback -1.3758 0.544582 4.49279
thorax -0.642389 0.210555 2.48785
lowerneck -16.6341 2.20727 -0.740669
upperneck 19.4959 2.35859 3.35691
head 8.79013 1.36432 1.54493
rclavicle 1.04735e-014 7.15625e-015
rhumerus -27.7676 -5.65768 -78.6817
rradius 31.6592
rwrist 12.909
rhand -11.9754 -26.1914
rfingers 7.12502
rthumb 14.0807 -55.6943
lclavicle 1.04735e-014 7.15625e-015
lhumerus -24.8038 -4.61184 92.8921
lradius 33.5806
lwrist -23.5965
lhand -8.36527 19.2833
lfingers 7.12502
lthumb 17.5574 48.5105
rfemur -15.1147 2.94205 31.2549
rtibia 17.852
rfoot -3.71697 -6.81163
rtoes 22.0548
lfemur -16.4759 -0.639965 -7.92547
ltibia 53.3776
lfoot 1.87007 -4.68913
ltoes -19.7053
421
root -19.8058 18.0661 3.55981 140.458 -79.3174 -134.826
lowerback -1.38955 0.691861 4.07937
upperback -1.35027 0.782737 4.46524
thorax -0.613324 0.327157 2.30984
lowerneck -16.6512 2.08336 -0.840749
upperneck 19.463 2.2088 3.38822
head 8.7838 1.29048 1.55371
rclavicle 1.12313e-014 5.64548e-014
rhumerus -27.2927 -5.20101 -78.7868
rradius 31.685
rwrist 12.9668
rhand -11.9327 -26.2787
rfingers 7.12502
rthumb 14.1218 -55.7788
lclavicle 1.12313e-014 5.64548e-014
lhumerus -25.1585 -3.57876 92.7031
lradius 32.7603
lwrist -24.0217
lhand -8.29114 19.342
lfingers 7.12502
lthumb 17.6287 48.5628
rfemur -14.3369 2.94184 31.5955
rtibia 17.5952
rfoot -4.05964 -6.74922
rtoes 21.9527
lfemur -17.4284 -0.384687 -7.60741
ltibia 53.7781
lfoot 1.53701 -4.16201
ltoes -19.7894
422
root -19.9556 18.0749 3.52984 139.829 -79.135 -134.222
lowerback -1.39536 0.876582 4.34568
upperback -1.32535 1.02374 4.43286
thorax -0.581777 0.44539 2.13013
lowerneck -16.6712 1.96259 -0.940818
upperneck 19.4255 2.06395 3.41839
head 8.77655 1.21893 1.5627
rclavicle 1.46604e-014 3.69739e-014
rhumerus -26.8294 -4.73173 -78.8801
rradius 31.7401
rwrist 13.013
rhand -11.8938 -26.379
rfingers 7.12502
rthumb 14.1594 -55.8765
lclavicle 1.46604e-014 3.69739e-014
lhumerus -25.5165 -2.47488 92.4457
lradius 31.9517
lwrist -24.4741
lhand -8.23692 19.4172
lfingers 7.12502
lthumb 17.6809 48.6333
rfemur -13.5745 2.93727 31.9201
rtibia 17.3395
rfoot -4.40133 -6.69326
rtoes 21.8053
lfemur -18.3653 -0.134261 -7.31059
ltibia 54.0551
lfoot 1.15596 -3.60558
ltoes -19.8336
423
root -20.1044 18.0827 3.50076 139.264 -78.9525 -133.676
lowerback -1.40127 1.06232 4.60996
upperback -1.30349 1.26621 4.39691
thorax -0.550862 0.564454 1.94837
lowerneck -16.6876 1.84553 -1.04121
upperneck 19.3824 1.92493 3.44713
head 8.76679 1.14997 1.57183
rclavicle -3.65267e-015 2.22639e-014
rhumerus -26.3828 -4.2504 -78.9618
rradius 31.8277
rwrist 13.0492
rhand -11.8554 -26.4876
rfingers 7.12502
rthumb 14.1963 -55.9825
lclavicle -3.65267e-015 2.22639e-014
lhumerus -25.8831 -1.29807 92.1173
lradius 31.1572
lwrist -24.958
lhand -8.20257 19.5113
lfingers 7.12502
lthumb 17.7139 48.7244
rfemur -12.8287 2.92926 32.2326
rtibia 17.0859
rfoot -4.74192 -6.63695
rtoes 21.6215
lfemur -19.2829 0.109971 -7.03025
ltibia 54.2037
lfoot 0.734197 -3.02232
ltoes -19.8332
424
root -20.2523 18.0894 3.47255 138.767 -78.7709 -133.187
lowerback -1.40877 1.2489 4.87097
upperback -1.28359 1.50978 4.35731
thorax -0.518602 0.684209 1.76519
lowerneck -16.7054 1.73249 -1.1404
upperneck 19.3358 1.79199 3.47345
head 8.75614 1.08376 1.58066
rclavicle -7.46685e-015 4.6118e-014
rhumerus -25.952 -3.7597 -79.0323
rradius 31.9512
rwrist 13.074
rhand -11.8202 -26.6063
rfingers 7.12502
rthumb 14.2303 -56.0988
lclavicle -7.46685e-015 4.6118e-014
lhumerus -26.2579 -0.0520275 91.7165
lradius 30.38
lwrist -25.473
lhand -8.18911 19.6247
lfingers 7.12502
lthumb 17.7269 48.8367
rfemur -12.1019 2.91809 32.5319
rtibia 16.8381
rfoot -5.08098 -6.57931
rtoes 21.4053
lfemur -20.1768 0.346329 -6.76727
ltibia 54.2198
lfoot 0.277066 -2.41792
ltoes -19.7908
425
root -20.3995 18.0951 3.44523 138.335 -78.5898 -132.753
lowerback -1.41887 1.43598 5.12822
upperback -1.26665 1.75393 4.3147
thorax -0.485459 0.804371 1.5816
lowerneck -16.7232 1.62406 -1.23872
upperneck 19.2854 1.66597 3.49746
head 8.74424 1.02068 1.58936
rclavicle -9.69075e-016 2.5842e-014
rhumerus -25.5379 -3.25931 -79.0918
rradius 32.1131
rwrist 13.0861
rhand -11.7905 -26.7341
rfingers 7.12502
rthumb 14.2589 -56.2246
lclavicle -9.69075e-016 2.5842e-014
lhumerus -26.6466 1.2626 91.2419
lradius 29.6267
lwrist -26.0204
lhand -8.19823 19.7571
lfingers 7.12502
lthumb 17.7181 48.9699
rfemur -11.397 2.90443 32.8181
rtibia 16.601
rfoot -5.41566 -6.52523
rtoes 21.1634
lfemur -21.0455 0.573965 -6.52068
ltibia 54.1012
lfoot -0.208933 -1.79644
ltoes -19.7047
